PathFileType	4	(X/Y/Z)	./resultDataOpenSim/trcMotMarkerGrf/sub10/qtm-04-05.trc
DataRate	CameraRate	NumFrames	NumMarkers	Units	OrigDataRate	OrigDataStartFrame	OrigNumFrames
250.000000	250.000000	10	24	m	250.000000	370	493
Frame#	Time	L.Toe.Tip			R.Toe.Tip			L.Ankle.Lat			R.Ankle.Lat			L.Ankle.Med			R.Ankle.Med			L.Heel			R.Heel			L.Knee.Lat			R.Knee.Lat			L.Knee.Med			R.Knee.Med			L.Thigh.Upper			R.Thigh.Upper			L.ASIS			R.ASIS			V.Sacral			L.Acromium			R.Acromium			C7			L.Elbow			R.Elbow			L.Wrist.Lat			R.Wrist.Lat
		X1	Y1	Z1	X2	Y2	Z2	X3	Y3	Z3	X4	Y4	Z4	X5	Y5	Z5	X6	Y6	Z6	X7	Y7	Z7	X8	Y8	Z8	X9	Y9	Z9	X10	Y10	Z10	X11	Y11	Z11	X12	Y12	Z12	X13	Y13	Z13	X14	Y14	Z14	X15	Y15	Z15	X16	Y16	Z16	X17	Y17	Z17	X18	Y18	Z18	X19	Y19	Z19	X20	Y20	Z20	X21	Y21	Z21	X22	Y22	Z22	X23	Y23	Z23	X24	Y24	Z24

370	1.476	0.62862078	0.10624461	-0.1566979	0.96016912	0.039074988	-0.00074534352	0.61350632	0.24119614	-0.19825627	0.81809105	0.054970791	0.035992628	0.63552542	0.24718875	-0.11829958	0.83799144	0.080041766	-0.048783996	0.56282219	0.28675882	-0.15356148	0.76609495	0.031426499	-0.0084103463	0.92504662	0.45270941	-0.22296546	0.89955581	0.44567832	0.065471247	0.94193319	0.41702377	-0.10122579	0.90252567	0.45439245	-0.062764166	0.81441236	0.81285488	-0.24078221	0.83008875	0.85526783	0.13668447	0.87854494	0.92639477	-0.18204707	0.89592027	0.94342112	0.059373117	0.68753881	0.95614289	-0.047690591	0.83702082	1.4162873	-0.20927812	0.81115217	1.4129573	0.10733931	0.74601316	1.439054	-0.061316299	0.79374614	1.0799008	-0.30039098	0.72539345	1.0698554	0.17058777	0.97142238	0.90830802	-0.28122098	0.87180926	0.89164406	0.25499663
371	1.48	0.64487839	0.10554642	-0.1582189	0.96016642	0.039074886	-0.00076088737	0.62612982	0.24025556	-0.19844208	0.81834825	0.05501542	0.035884472	0.64815816	0.24633709	-0.11851108	0.83800946	0.080132093	-0.048840041	0.57440219	0.28452529	-0.15345145	0.76606673	0.031473021	-0.0085159135	0.93522363	0.45573633	-0.22283276	0.90018997	0.44577838	0.065647978	0.95397335	0.42006604	-0.10142555	0.90282398	0.45444656	-0.062592413	0.82108382	0.81461711	-0.24110963	0.83418923	0.85623029	0.13650058	0.88462957	0.92818149	-0.18201238	0.90034007	0.94467901	0.059882114	0.69268256	0.95724405	-0.048542725	0.84190599	1.4175319	-0.2092216	0.81547056	1.4143068	0.10741983	0.75073414	1.4402644	-0.061351729	0.79656517	1.0817741	-0.30039908	0.73284324	1.0703326	0.17176744	0.97084279	0.9072641	-0.28334312	0.88330952	0.8943864	0.25421299
372	1.484	0.66135158	0.10473787	-0.15984371	0.96015936	0.039076033	-0.0007798603	0.63880613	0.23909343	-0.19859149	0.81864098	0.055045044	0.035749605	0.66094953	0.24519089	-0.11873657	0.83802019	0.080223802	-0.048896258	0.58608789	0.28202357	-0.15330203	0.76601932	0.031510555	-0.0086335036	0.94525785	0.45865734	-0.22271044	0.90083492	0.44586706	0.065818471	0.96546318	0.42309388	-0.10161225	0.9036053	0.45449249	-0.062278028	0.82798616	0.81633062	-0.24139336	0.8383425	0.85717363	0.1363211	0.89074067	0.92986603	-0.18186539	0.90474516	0.94589266	0.060373894	0.69772037	0.95828306	-0.050890545	0.84678422	1.4187252	-0.20917183	0.81976279	1.4156051	0.10749219	0.75545222	1.4414308	-0.061404378	0.79938961	1.0836132	-0.300421	0.74034603	1.070741	0.1728087	0.9704684	0.90619332	-0.28540904	0.8947831	0.89717827	0.25341303
373	1.488	0.67799489	0.10383312	-0.1615528	0.96014765	0.039077027	-0.00079840526	0.65155137	0.23770554	-0.19873847	0.81885511	0.055079391	0.035623439	0.6739228	0.24375969	-0.11897781	0.8380254	0.080313224	-0.048955117	0.59787798	0.27924576	-0.15311724	0.7659505	0.031549672	-0.0087487062	0.95515521	0.46146063	-0.22258809	0.90149366	0.44594658	0.065995846	0.97617967	0.42611181	-0.1017603	0.90443806	0.4545264	-0.061987361	0.83491088	0.81796446	-0.24168221	0.84256067	0.8580896	0.13615609	0.89678048	0.93143078	-0.18149827	0.90914088	0.94705596	0.060852002	0.70264582	0.95924948	-0.055701039	0.85166096	1.4198594	-0.20912509	0.82403817	1.4168467	0.10755238	0.7601724	1.442548	-0.061465769	0.80221936	1.0854037	-0.30045052	0.74786937	1.0710918	0.17378365	0.97023064	0.90510412	-0.28742302	0.90622632	0.90001583	0.25261133
374	1.492	0.69470515	0.10282926	-0.16328225	0.96013405	0.039078053	-0.00081522979	0.66437182	0.23609319	-0.19890726	0.81893852	0.055138238	0.035526722	0.68698264	0.24209708	-0.11921307	0.83803311	0.080395683	-0.04901956	0.60977303	0.27618524	-0.15290071	0.76589182	0.03161051	-0.0088636335	0.96491257	0.46414934	-0.22245427	0.90215823	0.44602424	0.066183636	0.98635518	0.42910986	-0.10190698	0.90510462	0.45454355	-0.061793816	0.84169127	0.81953056	-0.24203023	0.84676213	0.85895885	0.13601386	0.90266887	0.93287501	-0.18090395	0.9135323	0.9481609	0.061316992	0.70747659	0.96015487	-0.062912087	0.85653672	1.4209283	-0.2090867	0.82831046	1.4180294	0.10760227	0.76489646	1.4436041	-0.061532462	0.80505322	1.0871374	-0.30048035	0.7553653	1.0713604	0.17470318	0.97003026	0.90402009	-0.28941898	0.91762794	0.90289256	0.25180996
375	1.496	0.71137857	0.10172874	-0.16495345	0.96012283	0.039079838	-0.00083133579	0.67727572	0.23425755	-0.19909917	0.81888726	0.055236913	0.03546659	0.70000985	0.2402621	-0.1194188	0.83805239	0.080466119	-0.049089961	0.62176535	0.27284544	-0.1526616	0.76588155	0.031713441	-0.0089941094	0.97452955	0.46674771	-0.22230746	0.90281067	0.44610583	0.066375404	0.99631745	0.43206792	-0.10204942	0.90566939	0.45452611	-0.061639536	0.84835247	0.82104893	-0.24241779	0.85081282	0.85976887	0.13590082	0.90841296	0.93422076	-0.18020197	0.91791957	0.94919862	0.061767414	0.71233051	0.96101225	-0.070136844	0.86141127	1.4219286	-0.20906111	0.83258459	1.4191533	0.10764577	0.76961989	1.4445845	-0.061608391	0.80788939	1.0888144	-0.30050494	0.76277408	1.0715217	0.17549902	0.96984822	0.90295896	-0.29144466	0.92898085	0.90580133	0.25099827
376	1.5	0.72797475	0.10053919	-0.16651834	0.96011634	0.039081728	-0.00084833481	0.69026893	0.23220107	-0.19930025	0.81869525	0.055387685	0.035454007	0.71316932	0.23824909	-0.11962131	0.8380816	0.080526153	-0.049163637	0.63384748	0.2692365	-0.1524161	0.76588568	0.031845175	-0.0091299891	0.98402268	0.46928134	-0.22215604	0.90342885	0.44618897	0.066565713	1.0062794	0.43496074	-0.10213435	0.90629602	0.45444616	-0.06143046	0.85504246	0.82252991	-0.24278551	0.85468519	0.86052984	0.13581309	0.914126	0.93549846	-0.17952389	0.92229892	0.95016369	0.062202831	0.71736969	0.96181314	-0.074302502	0.86628839	1.4228591	-0.20904163	0.83685316	1.4202134	0.10768306	0.77434131	1.4454853	-0.061698931	0.81072432	1.0904372	-0.30053457	0.77007146	1.0716148	0.17609033	0.96971056	0.90192713	-0.29352095	0.94029017	0.90874052	0.25016778
377	1.504	0.74452848	0.099258243	-0.16797166	0.96011419	0.039079662	-0.00086781991	0.70335549	0.22992973	-0.19949984	0.81838926	0.055583192	0.035494035	0.72688277	0.23600072	-0.11988737	0.83811072	0.080591323	-0.049237617	0.64604017	0.26536519	-0.15219134	0.76582328	0.031960093	-0.0092388425	0.99341362	0.47175443	-0.2220097	0.90400575	0.44626501	0.066758048	1.0162771	0.43778124	-0.10213973	0.90703298	0.45429738	-0.061156051	0.86185214	0.82397353	-0.24310872	0.85848684	0.86125755	0.13573348	0.91994486	0.93673035	-0.17892189	0.92666846	0.95105582	0.062624795	0.72262869	0.96255165	-0.074761898	0.87117377	1.4237184	-0.20901836	0.84110973	1.4212013	0.10771267	0.77906612	1.4463196	-0.061802376	0.81355191	1.0920076	-0.3006061	0.77734943	1.0717216	0.17652089	0.96959538	0.90091747	-0.29559819	0.95157143	0.91171361	0.24931881
378	1.508	0.76112947	0.097871856	-0.16932839	0.9601145	0.039065733	-0.00089099485	0.71654549	0.22745218	-0.19970061	0.81808403	0.055780876	0.035550066	0.74120001	0.23351524	-0.12022977	0.83815122	0.080676564	-0.049319266	0.65839033	0.2612362	-0.15202682	0.76571403	0.032035344	-0.0093264487	1.0027115	0.47415192	-0.22187669	0.90457399	0.44633023	0.066961073	1.0261518	0.44054985	-0.10211795	0.9077869	0.45412062	-0.060891649	0.86872561	0.82537094	-0.24341166	0.86228802	0.86194616	0.1356527	0.92589426	0.93792133	-0.17838598	0.93102996	0.9518767	0.063033499	0.72800419	0.96324608	-0.073210994	0.87606873	1.4245055	-0.20899065	0.8453565	1.4221144	0.10773593	0.78379825	1.4470972	-0.061911747	0.81636229	1.0935328	-0.30077552	0.78478746	1.0718732	0.17697094	0.9694307	0.89992163	-0.29759737	0.96283682	0.9147195	0.24845223
379	1.512	0.77789011	0.096379407	-0.17061474	0.96011563	0.039034409	-0.00091752742	0.72985163	0.22477889	-0.19991352	0.81794573	0.055917939	0.035535787	0.75559218	0.23087459	-0.12058395	0.838247	0.080769068	-0.049425633	0.67091297	0.25686464	-0.15194263	0.76568673	0.032100378	-0.0094409154	1.0119194	0.47645656	-0.22176214	0.905185	0.44639114	0.067177888	1.0356095	0.44329299	-0.10214515	0.908448	0.45398853	-0.060697959	0.87559681	0.82671527	-0.24369701	0.86603928	0.86256958	0.13558308	0.93187818	0.93906006	-0.17788924	0.9353849	0.95262619	0.063427223	0.73339782	0.96389972	-0.071334893	0.8809696	1.4252213	-0.20896614	0.84959744	1.4229566	0.10775473	0.78853431	1.4478083	-0.062024681	0.81914904	1.0950226	-0.30106947	0.79248781	1.0720407	0.17757992	0.96917487	0.89894534	-0.2994989	0.97408455	0.91774892	0.24756163
